<svg width="945" height="57" viewBox="0 0 945 57" fill="none" xmlns="http://www.w3.org/2000/svg">
<path d="M51.0629 22.1806H41.1934V18.0566H52.4994C56.3916 19.4931 59.4729 22.6439 59.1718 27.4629C58.7721 33.8572 52.7001 35.8806 50.1362 36.0814L59.0327 49.7042H53.0554L41.1934 31.4941H51.0629C52.2213 31.0771 54.5289 29.6221 54.4918 27.1385C54.4547 24.6549 52.1905 22.7984 51.0629 22.1806Z" fill="url(#paint0_linear_2612_707)"/>
<path d="M11.5377 18.0566H16.3103L4.86529 49.7042H0L11.5377 18.0566Z" fill="url(#paint1_linear_2612_707)"/>
<path d="M15.9414 28.2497L18.1192 22.1797L28.4521 49.7033H23.3552L15.9414 28.2497Z" fill="url(#paint2_linear_2612_707)"/>
<path d="M32.6211 18.0566H37.3474V49.7505H32.6211V18.0566Z" fill="url(#paint3_linear_2612_707)"/>
<path d="M38.3675 10.1789C38.3675 12.0726 36.8323 13.6077 34.9386 13.6077C33.0449 13.6077 31.5098 12.0726 31.5098 10.1789C31.5098 8.28516 33.0449 6.75 34.9386 6.75C36.8323 6.75 38.3675 8.28516 38.3675 10.1789Z" fill="url(#paint4_linear_2612_707)"/>
<path d="M80 19.75V17.75H70C68 17.75 62.5 20.25 62.5 27.25C62.5 32.45 66.5 36.25 69 36.25H74.5C75.6667 36.4167 78 38.75 78 40.75C78 42.75 76 45.25 74.5 45.25H65V47.25H74.5C76 47.25 80 44.75 80 40.75C80 37.55 76 34.25 74.5 34.25H69C68 34.25 64.5 32.05 64.5 27.25C64.5 22.45 69 19.75 70 19.75H80Z" fill="url(#paint5_linear_2612_707)"/>
<path d="M65 48.25V50.25H75C77 50.25 82.5 47.75 82.5 40.75C82.5 35.55 78.5 31.75 76 31.75H70.5C69.3333 31.5833 67 29.25 67 27.25C67 25.25 69 22.75 70.5 22.75H80V20.75H70.5C69 20.75 65 23.25 65 27.25C65 30.45 69 33.75 70.5 33.75H76C77 33.75 80.5 35.95 80.5 40.75C80.5 45.55 76 48.25 75 48.25H65Z" fill="url(#paint6_linear_2612_707)"/>
<path d="M226.688 0C240.631 1.48887e-05 247.602 8.9437 249.847 13.8863L240.631 16.7106C238.701 14.1216 233.21 8.94371 226.688 8.94369C218.534 8.94369 208.609 15.6515 209.2 28.5963C209.201 28.6174 209.202 28.6384 209.203 28.6595C209.339 28.8883 209.42 29.1776 209.437 29.5377C209.504 31.0113 209.689 32.3781 209.975 33.6434C210.065 33.9687 210.162 34.287 210.265 34.598H210.215C212.749 43.733 220.747 47.1898 226.924 47.1898C232.69 47.1897 238.622 42.5218 240.867 39.7759L250.083 43.0709C248.193 47.7389 240.914 56.2276 226.924 56.1334C211.669 56.0308 202.259 45.9879 199.948 34.598H199.919C199.576 33.1619 199.347 31.7003 199.235 30.2307C199.134 30.1753 199.119 30.0567 199.208 29.8572C199.182 29.4373 199.165 29.0169 199.157 28.5963C198.921 15.2984 206.718 0 226.688 0Z" fill="url(#paint7_linear_2612_707)"/>
<path d="M201.985 0.941441C203.337 0.941441 205.407 1.42591 207.747 2.43313C210.089 3.44147 212.71 4.9776 215.164 7.08954C220.074 11.3146 224.318 17.8471 224.318 27.0664C224.318 36.3429 219.985 43.0221 215.032 47.3794C212.556 49.5576 209.924 51.1564 207.599 52.2112C205.277 53.2644 203.251 53.7798 201.985 53.7798H171.5V0.941441H201.985ZM180.835 10.7089V43.6593H201.985C206.121 42.2864 214.463 37.0457 214.747 27.0664C215.03 17.0872 206.357 12.0034 201.985 10.7089H180.835Z" fill="url(#paint8_linear_2612_707)"/>
<path d="M268.477 22.3592H261.689V0.449324H268.778C270.912 0.449324 272.738 0.88795 274.257 1.7652C275.775 2.63532 276.939 3.88701 277.748 5.52027C278.557 7.1464 278.962 9.09347 278.962 11.3615C278.962 13.6438 278.553 15.6087 277.737 17.2562C276.921 18.8966 275.732 20.159 274.171 21.0434C272.61 21.9206 270.712 22.3592 268.477 22.3592ZM264.353 20.0056H268.306C270.125 20.0056 271.632 19.6562 272.828 18.9572C274.024 18.2583 274.915 17.2633 275.503 15.9724C276.09 14.6815 276.384 13.1445 276.384 11.3615C276.384 9.59272 276.093 8.07001 275.513 6.79335C274.933 5.50957 274.067 4.52534 272.914 3.84065C271.761 3.14884 270.325 2.80293 268.606 2.80293H264.353V20.0056Z" fill="url(#paint9_linear_2612_707)"/>
<path d="M291.819 22.7016C290.229 22.7016 288.858 22.3521 287.705 21.6532C286.559 20.9471 285.675 19.9628 285.052 18.7004C284.436 17.4309 284.128 15.9546 284.128 14.2714C284.128 12.5882 284.436 11.1047 285.052 9.82095C285.675 8.53003 286.541 7.5244 287.651 6.80405C288.768 6.07658 290.072 5.71284 291.561 5.71284C292.421 5.71284 293.269 5.85548 294.107 6.14076C294.945 6.42605 295.708 6.88964 296.395 7.53153C297.083 8.16629 297.631 9.00788 298.039 10.0563C298.447 11.1047 298.651 12.3956 298.651 13.9291V14.9989H285.933V12.8164H296.073C296.073 11.8893 295.887 11.0619 295.514 10.3345C295.149 9.60698 294.626 9.03284 293.946 8.61205C293.273 8.19125 292.478 7.98085 291.561 7.98085C290.552 7.98085 289.678 8.23048 288.94 8.72973C288.21 9.22185 287.648 9.86374 287.254 10.6554C286.86 11.4471 286.663 12.2958 286.663 13.2016V14.6565C286.663 15.8975 286.878 16.9495 287.308 17.8125C287.744 18.6684 288.35 19.3209 289.123 19.7703C289.896 20.2125 290.795 20.4336 291.819 20.4336C292.485 20.4336 293.087 20.3408 293.624 20.1554C294.168 19.9628 294.637 19.6776 295.031 19.2995C295.425 18.9144 295.729 18.4366 295.944 17.866L298.393 18.5507C298.135 19.378 297.702 20.1055 297.093 20.7331C296.485 21.3536 295.733 21.8386 294.838 22.1881C293.942 22.5304 292.936 22.7016 291.819 22.7016Z" fill="url(#paint10_linear_2612_707)"/>
<path d="M311.025 22.7016C309.478 22.7016 308.146 22.3378 307.029 21.6104C305.912 20.8829 305.053 19.8808 304.451 18.6042C303.85 17.3275 303.549 15.869 303.549 14.2286C303.549 12.5597 303.857 11.0869 304.473 9.81025C305.096 8.52646 305.962 7.5244 307.072 6.80405C308.189 6.07658 309.493 5.71284 310.982 5.71284C312.142 5.71284 313.188 5.9268 314.119 6.35473C315.05 6.78266 315.813 7.38176 316.407 8.15203C317.001 8.9223 317.37 9.82094 317.513 10.848H314.978C314.785 10.0991 314.355 9.43581 313.689 8.85811C313.03 8.27327 312.142 7.98085 311.025 7.98085C310.037 7.98085 309.17 8.23761 308.426 8.75113C307.688 9.25751 307.112 9.97429 306.696 10.9015C306.288 11.8215 306.084 12.902 306.084 14.143C306.084 15.4125 306.285 16.518 306.686 17.4595C307.094 18.4009 307.667 19.1319 308.404 19.6526C309.149 20.1732 310.023 20.4336 311.025 20.4336C311.684 20.4336 312.282 20.3194 312.819 20.0912C313.356 19.863 313.811 19.5349 314.183 19.107C314.556 18.6791 314.821 18.1655 314.978 17.5664H317.513C317.37 18.5364 317.016 19.4101 316.45 20.1875C315.891 20.9578 315.15 21.5711 314.226 22.0276C313.31 22.4769 312.243 22.7016 311.025 22.7016Z" fill="url(#paint11_linear_2612_707)"/>
<path d="M329.952 22.7016C328.362 22.7016 326.991 22.3521 325.838 21.6532C324.692 20.9471 323.808 19.9628 323.185 18.7004C322.569 17.4309 322.261 15.9546 322.261 14.2714C322.261 12.5882 322.569 11.1047 323.185 9.82095C323.808 8.53003 324.674 7.5244 325.784 6.80405C326.901 6.07658 328.205 5.71284 329.694 5.71284C330.554 5.71284 331.402 5.85548 332.24 6.14076C333.078 6.42605 333.841 6.88964 334.528 7.53153C335.216 8.16629 335.763 9.00788 336.172 10.0563C336.58 11.1047 336.784 12.3956 336.784 13.9291V14.9989H324.065V12.8164H334.206C334.206 11.8893 334.02 11.0619 333.647 10.3345C333.282 9.60698 332.759 9.03284 332.079 8.61205C331.406 8.19125 330.611 7.98085 329.694 7.98085C328.684 7.98085 327.811 8.23048 327.073 8.72973C326.343 9.22185 325.781 9.86374 325.387 10.6554C324.993 11.4471 324.796 12.2958 324.796 13.2016V14.6565C324.796 15.8975 325.011 16.9495 325.44 17.8125C325.877 18.6684 326.482 19.3209 327.256 19.7703C328.029 20.2125 328.928 20.4336 329.952 20.4336C330.618 20.4336 331.22 20.3408 331.757 20.1554C332.301 19.9628 332.77 19.6776 333.164 19.2995C333.558 18.9144 333.862 18.4366 334.077 17.866L336.526 18.5507C336.268 19.378 335.835 20.1055 335.226 20.7331C334.618 21.3536 333.866 21.8386 332.97 22.1881C332.075 22.5304 331.069 22.7016 329.952 22.7016Z" fill="url(#paint12_linear_2612_707)"/>
<path d="M344.99 12.4741V22.3592H342.455V5.9268H344.904V8.49437H345.119C345.506 7.65991 346.093 6.98949 346.881 6.48311C347.669 5.96959 348.685 5.71284 349.931 5.71284C351.049 5.71284 352.026 5.94107 352.864 6.39752C353.702 6.84685 354.354 7.53153 354.819 8.45158C355.285 9.36449 355.517 10.5199 355.517 11.9178V22.3592H352.982V12.089C352.982 10.798 352.646 9.79242 351.972 9.07207C351.299 8.34459 350.376 7.98085 349.201 7.98085C348.392 7.98085 347.669 8.15559 347.031 8.50507C346.401 8.85454 345.903 9.36449 345.538 10.0349C345.173 10.7053 344.99 11.5184 344.99 12.4741Z" fill="url(#paint13_linear_2612_707)"/>
<path d="M369.14 5.9268V8.06644H360.59V5.9268H369.14ZM363.082 1.98986H365.617V17.652C365.617 18.3652 365.721 18.9002 365.928 19.2568C366.143 19.6062 366.415 19.8416 366.745 19.9628C367.081 20.077 367.436 20.134 367.808 20.134C368.088 20.134 368.317 20.1197 368.496 20.0912C368.675 20.0556 368.818 20.027 368.925 20.0056L369.441 22.2736C369.269 22.3378 369.029 22.402 368.721 22.4662C368.413 22.5375 368.023 22.5732 367.55 22.5732C366.834 22.5732 366.133 22.4199 365.445 22.1132C364.765 21.8065 364.199 21.3393 363.748 20.7117C363.304 20.0841 363.082 19.2924 363.082 18.3367V1.98986Z" fill="url(#paint14_linear_2612_707)"/>
<path d="M265.952 51.1802C264.405 51.1802 263.073 50.8164 261.956 50.089C260.839 49.3615 259.98 48.3594 259.378 47.0828C258.777 45.8061 258.476 44.3476 258.476 42.7072C258.476 41.0383 258.784 39.5655 259.4 38.2889C260.023 37.0051 260.889 36.003 261.999 35.2827C263.116 34.5552 264.42 34.1914 265.909 34.1914C267.069 34.1914 268.115 34.4054 269.046 34.8333C269.977 35.2613 270.74 35.8604 271.334 36.6306C271.928 37.4009 272.297 38.2995 272.44 39.3266H269.905C269.712 38.5777 269.282 37.9144 268.616 37.3367C267.957 36.7519 267.069 36.4595 265.952 36.4595C264.964 36.4595 264.097 36.7162 263.353 37.2297C262.615 37.7361 262.039 38.4529 261.623 39.3801C261.215 40.3001 261.011 41.3806 261.011 42.6216C261.011 43.8911 261.211 44.9966 261.613 45.9381C262.021 46.8795 262.594 47.6105 263.331 48.1312C264.076 48.6518 264.95 48.9122 265.952 48.9122C266.611 48.9122 267.209 48.798 267.746 48.5698C268.283 48.3416 268.738 48.0135 269.11 47.5856C269.483 47.1577 269.748 46.6441 269.905 46.045H272.44C272.297 47.015 271.943 47.8887 271.377 48.6661C270.818 49.4364 270.077 50.0497 269.153 50.5062C268.237 50.9555 267.17 51.1802 265.952 51.1802Z" fill="url(#paint15_linear_2612_707)"/>
<path d="M282.817 51.223C281.771 51.223 280.822 51.0268 279.97 50.6346C279.118 50.2352 278.441 49.661 277.94 48.9122C277.438 48.1562 277.188 47.2432 277.188 46.1734C277.188 45.232 277.374 44.4688 277.746 43.884C278.119 43.292 278.616 42.8285 279.24 42.4932C279.863 42.158 280.55 41.9084 281.302 41.7444C282.061 41.5732 282.824 41.4377 283.59 41.3378C284.593 41.2095 285.405 41.1132 286.028 41.049C286.659 40.9777 287.117 40.86 287.403 40.6959C287.697 40.5319 287.844 40.2466 287.844 39.8401V39.7545C287.844 38.6989 287.554 37.8788 286.974 37.2939C286.401 36.7091 285.531 36.4167 284.363 36.4167C283.153 36.4167 282.204 36.6806 281.517 37.2083C280.829 37.7361 280.346 38.2995 280.067 38.8986L277.66 38.0428C278.09 37.0443 278.663 36.2669 279.379 35.7106C280.102 35.1471 280.89 34.7549 281.742 34.5338C282.602 34.3056 283.447 34.1914 284.277 34.1914C284.807 34.1914 285.416 34.2556 286.104 34.384C286.798 34.5053 287.468 34.7584 288.112 35.1436C288.764 35.5287 289.305 36.11 289.734 36.8874C290.164 37.6648 290.379 38.7061 290.379 40.0113V50.8378H287.844V48.6126H287.715C287.543 48.9692 287.257 49.3508 286.856 49.7573C286.454 50.1638 285.921 50.5098 285.255 50.795C284.589 51.0803 283.776 51.223 282.817 51.223ZM283.203 48.955C284.206 48.955 285.051 48.7588 285.738 48.3666C286.433 47.9743 286.956 47.4679 287.307 46.8474C287.665 46.2269 287.844 45.5743 287.844 44.8896V42.5788C287.736 42.7072 287.5 42.8249 287.135 42.9319C286.777 43.0317 286.361 43.1209 285.889 43.1993C285.423 43.2706 284.969 43.3348 284.525 43.3919C284.088 43.4418 283.733 43.4846 283.461 43.5203C282.802 43.6059 282.186 43.7449 281.613 43.9375C281.048 44.1229 280.589 44.4047 280.239 44.7827C279.895 45.1535 279.723 45.6599 279.723 46.3018C279.723 47.1791 280.049 47.8423 280.7 48.2917C281.359 48.7339 282.194 48.955 283.203 48.955Z" fill="url(#paint16_linear_2612_707)"/>
<path d="M296.821 57V34.4054H299.27V37.0158H299.571C299.757 36.7305 300.015 36.3667 300.344 35.9245C300.681 35.4752 301.161 35.0758 301.784 34.7263C302.414 34.3697 303.266 34.1914 304.34 34.1914C305.729 34.1914 306.954 34.5373 308.014 35.2292C309.074 35.921 309.901 36.9017 310.495 38.1712C311.09 39.4407 311.387 40.9384 311.387 42.6644C311.387 44.4047 311.09 45.9131 310.495 47.1898C309.901 48.4593 309.077 49.4435 308.025 50.1425C306.972 50.8343 305.758 51.1802 304.383 51.1802C303.323 51.1802 302.475 51.0054 301.837 50.656C301.2 50.2994 300.709 49.8964 300.366 49.4471C300.022 48.9906 299.757 48.6126 299.571 48.3131H299.356V57H296.821ZM299.313 42.6216C299.313 43.8626 299.496 44.9574 299.861 45.906C300.226 46.8474 300.76 47.5856 301.461 48.1205C302.163 48.6483 303.023 48.9122 304.039 48.9122C305.099 48.9122 305.984 48.634 306.693 48.0777C307.409 47.5143 307.946 46.7583 308.304 45.8097C308.669 44.854 308.852 43.7913 308.852 42.6216C308.852 41.4662 308.673 40.4249 308.315 39.4977C307.964 38.5634 307.43 37.8253 306.714 37.2832C306.005 36.734 305.114 36.4595 304.039 36.4595C303.008 36.4595 302.142 36.7198 301.44 37.2404C300.738 37.7539 300.208 38.4743 299.85 39.4015C299.492 40.3215 299.313 41.3949 299.313 42.6216Z" fill="url(#paint17_linear_2612_707)"/>
<path d="M317.069 50.8378V34.4054H319.604V50.8378H317.069ZM318.358 31.6667C317.864 31.6667 317.438 31.4991 317.08 31.1639C316.729 30.8286 316.553 30.4257 316.553 29.955C316.553 29.4842 316.729 29.0813 317.08 28.7461C317.438 28.4108 317.864 28.2432 318.358 28.2432C318.852 28.2432 319.275 28.4108 319.625 28.7461C319.984 29.0813 320.163 29.4842 320.163 29.955C320.163 30.4257 319.984 30.8286 319.625 31.1639C319.275 31.4991 318.852 31.6667 318.358 31.6667Z" fill="url(#paint18_linear_2612_707)"/>
<path d="M333.238 34.4054V36.545H324.687V34.4054H333.238ZM327.179 30.4685H329.714V46.1306C329.714 46.8438 329.818 47.3787 330.026 47.7354C330.241 48.0848 330.513 48.3202 330.842 48.4414C331.179 48.5556 331.533 48.6126 331.906 48.6126C332.185 48.6126 332.414 48.5983 332.593 48.5698C332.772 48.5342 332.915 48.5056 333.023 48.4842L333.538 50.7523C333.367 50.8164 333.127 50.8806 332.819 50.9448C332.511 51.0161 332.121 51.0518 331.648 51.0518C330.932 51.0518 330.23 50.8985 329.542 50.5918C328.862 50.2851 328.296 49.8179 327.845 49.1903C327.401 48.5627 327.179 47.771 327.179 46.8153V30.4685Z" fill="url(#paint19_linear_2612_707)"/>
<path d="M343.721 51.223C342.676 51.223 341.727 51.0268 340.875 50.6346C340.023 50.2352 339.346 49.661 338.845 48.9122C338.343 48.1562 338.093 47.2432 338.093 46.1734C338.093 45.232 338.279 44.4688 338.651 43.884C339.024 43.292 339.521 42.8285 340.144 42.4932C340.767 42.158 341.455 41.9084 342.207 41.7444C342.966 41.5732 343.729 41.4377 344.495 41.3378C345.497 41.2095 346.31 41.1132 346.933 41.049C347.563 40.9777 348.022 40.86 348.308 40.6959C348.602 40.5319 348.749 40.2466 348.749 39.8401V39.7545C348.749 38.6989 348.459 37.8788 347.878 37.2939C347.306 36.7091 346.435 36.4167 345.268 36.4167C344.058 36.4167 343.109 36.6806 342.422 37.2083C341.734 37.7361 341.251 38.2995 340.971 38.8986L338.565 38.0428C338.995 37.0443 339.568 36.2669 340.284 35.7106C341.007 35.1471 341.795 34.7549 342.647 34.5338C343.507 34.3056 344.352 34.1914 345.182 34.1914C345.712 34.1914 346.321 34.2556 347.008 34.384C347.703 34.5053 348.373 34.7584 349.017 35.1436C349.669 35.5287 350.209 36.11 350.639 36.8874C351.069 37.6648 351.284 38.7061 351.284 40.0113V50.8378H348.749V48.6126H348.62C348.448 48.9692 348.161 49.3508 347.76 49.7573C347.359 50.1638 346.826 50.5098 346.16 50.795C345.494 51.0803 344.681 51.223 343.721 51.223ZM344.108 48.955C345.111 48.955 345.956 48.7588 346.643 48.3666C347.338 47.9743 347.861 47.4679 348.211 46.8474C348.57 46.2269 348.749 45.5743 348.749 44.8896V42.5788C348.641 42.7072 348.405 42.8249 348.04 42.9319C347.682 43.0317 347.266 43.1209 346.794 43.1993C346.328 43.2706 345.873 43.3348 345.429 43.3919C344.992 43.4418 344.638 43.4846 344.366 43.5203C343.707 43.6059 343.091 43.7449 342.518 43.9375C341.953 44.1229 341.494 44.4047 341.143 44.7827C340.8 45.1535 340.628 45.6599 340.628 46.3018C340.628 47.1791 340.954 47.8423 341.605 48.2917C342.264 48.7339 343.098 48.955 344.108 48.955Z" fill="url(#paint20_linear_2612_707)"/>
<path d="M360.261 28.9279V50.8378H357.726V28.9279H360.261Z" fill="url(#paint21_linear_2612_707)"/>
<path d="M368.566 51.009C368.037 51.009 367.582 50.82 367.202 50.442C366.823 50.064 366.633 49.6111 366.633 49.0833C366.633 48.5556 366.823 48.1027 367.202 47.7247C367.582 47.3467 368.037 47.1577 368.566 47.1577C369.096 47.1577 369.551 47.3467 369.931 47.7247C370.31 48.1027 370.5 48.5556 370.5 49.0833C370.5 49.4328 370.41 49.7538 370.231 50.0462C370.06 50.3386 369.827 50.5739 369.533 50.7523C369.247 50.9234 368.925 51.009 368.566 51.009Z" fill="url(#paint22_linear_2612_707)"/>
<rect x="459.5" width="6" height="57" fill="url(#paint23_linear_2612_707)"/>
<rect x="469.5" y="8" width="6" height="49" fill="url(#paint24_linear_2612_707)"/>
<rect x="479.5" y="18" width="6" height="39" fill="url(#paint25_linear_2612_707)"/>
<rect x="489.5" y="26" width="6" height="31" fill="url(#paint26_linear_2612_707)"/>
<rect x="499.5" y="36" width="6" height="21" fill="url(#paint27_linear_2612_707)"/>
<rect x="509.5" y="26" width="6" height="31" fill="url(#paint28_linear_2612_707)"/>
<rect x="519.5" y="18" width="6" height="39" fill="url(#paint29_linear_2612_707)"/>
<rect x="529.5" y="8" width="6" height="49" fill="url(#paint30_linear_2612_707)"/>
<rect x="539.5" width="6" height="57" fill="url(#paint31_linear_2612_707)"/>
<path d="M559.357 26.1416V31.1411H569.2V26.1416H559.357ZM559.357 34.2341V36.9457H555.598V23.0487H572.917V34.2341H559.357ZM583.647 16.4391C582.802 16.0154 581.816 15.5635 580.69 15.0833C579.591 14.5749 578.409 14.0665 577.141 13.558C575.874 13.0214 574.579 12.4988 573.255 11.9904C571.931 11.482 570.636 11.0159 569.369 10.5922C568.749 11.3266 568.003 12.0045 567.13 12.6259C566.257 13.2191 565.229 13.7699 564.046 14.2783C562.863 14.7585 561.497 15.1822 559.949 15.5494C558.428 15.9166 556.696 16.2273 554.753 16.4815C554.612 16.0013 554.358 15.4646 553.992 14.8715C553.626 14.2501 553.288 13.7558 552.978 13.3886C555.062 13.1344 556.865 12.8378 558.386 12.4988C559.934 12.1316 561.258 11.7079 562.356 11.2278C563.455 10.7193 564.37 10.1403 565.102 9.49063C565.834 8.84097 566.426 8.10658 566.876 7.28745H553.612V3.8132H568.059C568.172 3.24828 568.256 2.65512 568.313 2.03371C568.397 1.38405 568.467 0.72027 568.524 0.0423683H572.579C572.523 0.72027 572.452 1.38405 572.368 2.03371C572.312 2.65512 572.227 3.24828 572.114 3.8132H587.111V7.28745H571.227L571.058 7.66877C572.382 8.09246 573.748 8.57264 575.156 9.10931C576.564 9.61774 577.958 10.1403 579.338 10.677C580.718 11.1854 582.027 11.6938 583.267 12.2022C584.506 12.7107 585.604 13.1767 586.561 13.6004L583.647 16.4391ZM589.223 19.9981H583.689V34.4883C583.689 35.5616 583.52 36.3949 583.182 36.988C582.872 37.6095 582.309 38.0614 581.492 38.3438C580.647 38.6546 579.549 38.8382 578.197 38.8946C576.874 38.9511 575.269 38.9794 573.382 38.9794C573.241 38.4145 573.03 37.7789 572.748 37.0728C572.495 36.3666 572.213 35.7593 571.903 35.2509C572.635 35.2792 573.354 35.3074 574.058 35.3357C574.762 35.3357 575.409 35.3498 576.001 35.378C576.62 35.378 577.155 35.378 577.606 35.378C578.057 35.3498 578.38 35.3357 578.578 35.3357C579 35.3074 579.282 35.2368 579.422 35.1238C579.591 35.0108 579.676 34.7849 579.676 34.4459V19.9981H551.5V16.4815H589.223V19.9981Z" fill="url(#paint32_linear_2612_707)"/>
<path d="M617.61 6.56718H608.57V3.55899H617.61V0.38132H621.243V3.55899H630.832V6.56718H621.243V8.64325H629.691V11.482H621.243V13.8123H631.761V16.6933H607.472V13.8123H617.61V11.482H609.922V8.64325H617.61V6.56718ZM626.058 31.353V21.9895H613.174V31.353H609.584V18.9389H629.818V31.353H626.058ZM607.598 21.7776C607.542 22.2578 607.5 22.8086 607.472 23.43C607.472 24.0514 607.486 24.5598 607.514 24.9553C604.867 25.4919 602.74 25.9298 601.135 26.2687C599.53 26.5794 598.277 26.8478 597.376 27.0737C596.474 27.2714 595.813 27.4409 595.39 27.5821C594.996 27.7234 594.672 27.8646 594.419 28.0058C594.334 27.6386 594.179 27.1161 593.954 26.4382C593.757 25.7603 593.546 25.1954 593.32 24.7434C593.799 24.6587 594.278 24.3762 594.757 23.8961C595.263 23.3876 595.841 22.7521 596.488 21.9895C596.883 21.594 597.432 20.9444 598.136 20.0405C598.868 19.1084 599.657 18.0209 600.502 16.7781C599.319 16.9193 598.347 17.0464 597.587 17.1594C596.855 17.2441 596.249 17.3289 595.77 17.4136C595.32 17.4984 594.968 17.5831 594.714 17.6678C594.489 17.7243 594.292 17.7949 594.123 17.8797C594.095 17.7102 594.024 17.4701 593.912 17.1594C593.827 16.8487 593.729 16.5239 593.616 16.1849C593.503 15.846 593.377 15.5211 593.236 15.2104C593.123 14.8715 593.01 14.589 592.898 14.3631C593.292 14.2783 593.672 14.01 594.038 13.558C594.433 13.0779 594.869 12.4847 595.348 11.7786C595.573 11.4396 595.911 10.8747 596.362 10.0838C596.841 9.29291 597.347 8.36079 597.882 7.28745C598.446 6.2141 598.995 5.05602 599.53 3.8132C600.093 2.54213 600.586 1.27107 601.008 0L604.515 1.65239C603.613 3.77083 602.586 5.88928 601.431 8.00772C600.276 10.1262 599.079 12.0751 597.84 13.8546L602.656 13.3886C603.107 12.6824 603.543 11.9621 603.965 11.2278C604.388 10.4651 604.782 9.7166 605.148 8.98221L608.19 10.8464C606.922 13.0496 605.557 15.1963 604.092 17.2865C602.628 19.3767 601.121 21.3398 599.572 23.1758L607.598 21.7776ZM607.936 33.0477C605.458 33.6974 602.994 34.3329 600.544 34.9543C598.122 35.5475 595.925 36.0842 593.954 36.5644L593.236 32.9206C595.038 32.5534 597.207 32.1015 599.741 31.5648C602.304 30.9999 604.909 30.4067 607.556 29.7853L607.936 33.0477ZM621.2 27.455C621.2 28.4154 621.046 29.4181 620.736 30.4632C620.454 31.5083 619.849 32.5393 618.919 33.5562C617.99 34.573 616.652 35.5475 614.906 36.4796C613.16 37.4117 610.837 38.2591 607.936 39.0217C607.711 38.5981 607.373 38.1038 606.922 37.5388C606.472 36.9739 606.049 36.4937 605.655 36.0983C608.359 35.5051 610.499 34.8555 612.076 34.1493C613.681 33.4149 614.892 32.6523 615.709 31.8614C616.526 31.0705 617.047 30.2938 617.272 29.5311C617.497 28.7402 617.61 28.0058 617.61 27.3279V24.0232H621.2V27.455ZM622.172 31.6496C622.989 31.932 623.862 32.2569 624.791 32.624C625.72 32.9912 626.636 33.3726 627.537 33.768C628.438 34.1634 629.297 34.5589 630.114 34.9543C630.93 35.3498 631.62 35.717 632.184 36.0559L630.367 38.8523C629.832 38.5133 629.156 38.132 628.339 37.7083C627.551 37.2846 626.706 36.8609 625.805 36.4372C624.904 36.0136 623.974 35.604 623.017 35.2085C622.088 34.7849 621.2 34.4177 620.356 34.107L622.172 31.6496Z" fill="url(#paint33_linear_2612_707)"/>
<path d="M655.206 15.3375C654.276 13.9817 653.136 12.4988 651.784 10.8888C650.432 9.27879 649.081 7.71114 647.729 6.18586C646.715 7.88061 645.589 9.49063 644.349 11.0159C643.139 12.5412 641.829 13.9817 640.421 15.3375H655.206ZM656.051 16.5662C655.966 16.425 655.868 16.2838 655.755 16.1425C655.671 16.0013 655.572 15.8601 655.459 15.7189C655.459 15.8883 655.459 16.0719 655.459 16.2697C655.459 16.4674 655.445 16.6369 655.417 16.7781C655.333 18.5576 655.234 20.097 655.121 21.3963C655.009 22.6674 654.882 23.7548 654.741 24.6587C654.6 25.5343 654.431 26.2405 654.234 26.7771C654.065 27.2856 653.868 27.681 653.643 27.9635C653.277 28.3589 652.897 28.6414 652.502 28.8108C652.108 28.9803 651.629 29.1074 651.066 29.1922C650.615 29.2487 649.996 29.2769 649.207 29.2769C648.447 29.2769 647.644 29.2487 646.8 29.1922C646.743 28.712 646.631 28.1612 646.462 27.5398C646.293 26.8901 646.067 26.3252 645.786 25.845C646.546 25.9298 647.236 25.9863 647.856 26.0145C648.475 26.0427 648.94 26.0569 649.25 26.0569C649.841 26.0569 650.235 25.9156 650.432 25.6332C650.686 25.3507 650.897 24.7011 651.066 23.6842C651.235 22.6391 651.39 21.0008 651.531 18.7694H643.462V33.0054C643.462 33.8245 643.603 34.347 643.885 34.573C644.195 34.799 644.856 34.912 645.87 34.912H652.502C652.953 34.912 653.319 34.8414 653.601 34.7001C653.882 34.5589 654.108 34.2906 654.277 33.8951C654.445 33.4714 654.572 32.8924 654.657 32.158C654.741 31.3953 654.812 30.4209 654.868 29.2345C655.29 29.5735 655.825 29.8842 656.473 30.1667C657.149 30.4209 657.754 30.6045 658.29 30.7174C658.177 32.1862 658.008 33.4149 657.783 34.4035C657.586 35.3639 657.276 36.1265 656.853 36.6915C656.459 37.2846 655.924 37.6942 655.248 37.9202C654.6 38.1744 653.784 38.3015 652.798 38.3015H645.448C644.349 38.3015 643.42 38.2167 642.66 38.0473C641.928 37.906 641.336 37.6377 640.886 37.2423C640.463 36.8468 640.153 36.296 639.956 35.5899C639.787 34.912 639.703 34.0505 639.703 33.0054V16.0154C639.365 16.2979 639.027 16.5804 638.689 16.8628C638.379 17.117 638.041 17.3854 637.675 17.6678C637.365 17.2441 636.915 16.7498 636.323 16.1849C635.76 15.5918 635.267 15.1398 634.845 14.8291C636.14 13.9252 637.379 12.9084 638.562 11.7786C639.773 10.6205 640.886 9.40589 641.899 8.13483C642.913 6.83552 643.828 5.50796 644.645 4.15215C645.462 2.7681 646.152 1.39817 646.715 0.0423683L650.306 1.18633C650.165 1.49703 650.024 1.79362 649.883 2.07608C649.742 2.35854 649.602 2.65512 649.461 2.96582C650.306 3.84145 651.179 4.77356 652.08 5.76217C652.981 6.72253 653.854 7.69701 654.699 8.68562C655.544 9.64598 656.332 10.5781 657.065 11.482C657.797 12.3858 658.402 13.205 658.881 13.9394L656.051 16.5662ZM664.035 28.4295H660.275V4.91479H664.035V28.4295ZM672.272 0.76264V34.0222C672.272 35.2368 672.103 36.1407 671.765 36.7338C671.455 37.3552 670.92 37.8213 670.16 38.132C669.399 38.4427 668.371 38.6404 667.076 38.7252C665.809 38.8099 664.204 38.8523 662.26 38.8523C662.148 38.3156 661.965 37.6801 661.711 36.9457C661.458 36.2113 661.19 35.5757 660.909 35.0391C661.613 35.0673 662.289 35.0956 662.936 35.1238C663.612 35.1238 664.232 35.1379 664.795 35.1662C665.386 35.1662 665.893 35.1662 666.316 35.1662C666.738 35.1379 667.048 35.1238 667.245 35.1238C667.639 35.0956 667.921 35.0108 668.09 34.8696C668.287 34.7001 668.386 34.4177 668.386 34.0222V0.76264H672.272Z" fill="url(#paint34_linear_2612_707)"/>
<path d="M713.796 6.9485H693.689V3.1353H713.796V6.9485ZM691.957 27.794C689.648 28.8956 687.31 29.9972 684.945 31.0988C682.607 32.1721 680.453 33.1466 678.482 34.0222L677.383 29.9548C678.115 29.6723 678.918 29.3616 679.791 29.0227C680.664 28.6837 681.593 28.3165 682.579 27.9211V13.7275H677.637V9.99906H682.579V0.550796H686.677V9.99906H691.281V13.7275H686.677V26.2687C687.409 25.958 688.155 25.6332 688.916 25.2942C689.676 24.9553 690.422 24.6304 691.154 24.3197L691.957 27.794ZM712.656 38.7675C712.459 38.2026 712.219 37.5671 711.938 36.8609C711.656 36.1548 711.346 35.3921 711.008 34.573C708.502 34.8837 706.334 35.1662 704.503 35.4204C702.673 35.6464 701.11 35.8441 699.814 36.0136C698.519 36.183 697.449 36.3243 696.604 36.4372C695.787 36.5785 695.111 36.6915 694.576 36.7762C694.041 36.8892 693.619 36.988 693.309 37.0728C692.999 37.1575 692.731 37.2564 692.506 37.3694V37.327C692.45 37.1293 692.365 36.8609 692.253 36.522C692.168 36.183 692.056 35.8158 691.915 35.4204C691.802 35.0249 691.675 34.6436 691.535 34.2764C691.394 33.881 691.253 33.542 691.112 33.2596C691.563 33.1183 691.999 32.8076 692.422 32.3275C692.844 31.819 693.323 31.1553 693.858 30.3361C694.083 29.9689 694.393 29.4181 694.787 28.6837C695.21 27.9211 695.66 27.0455 696.139 26.0569C696.646 25.04 697.167 23.9384 697.702 22.7521C698.237 21.5375 698.73 20.2947 699.18 19.0236H691.704V15.2528H715.824V19.0236H703.996C703.01 21.4245 701.926 23.7831 700.743 26.0992C699.561 28.3872 698.35 30.5197 697.111 32.4969L709.445 31.1411C708.939 30.0395 708.432 28.9521 707.925 27.8787C707.418 26.8054 706.925 25.7744 706.446 24.7858L709.952 23.5147C710.516 24.6163 711.107 25.7885 711.727 27.0314C712.346 28.2742 712.952 29.5029 713.543 30.7174C714.134 31.932 714.684 33.1042 715.19 34.2341C715.726 35.3357 716.162 36.3101 716.5 37.1575L712.656 38.7675Z" fill="url(#paint35_linear_2612_707)"/>
<path d="M552.492 43.9353H554.342L558.692 54.5927H558.842L563.193 43.9353H565.043V56.7743H563.593V47.0196H563.468L559.467 56.7743H558.067L554.067 47.0196H553.942V56.7743H552.492V43.9353Z" fill="url(#paint36_linear_2612_707)"/>
<path d="M574.101 43.9353V56.7743H572.551V43.9353H574.101Z" fill="url(#paint37_linear_2612_707)"/>
<path d="M581.61 56.7743V43.9353H585.935C586.935 43.9353 587.756 44.1066 588.397 44.4493C589.039 44.7878 589.514 45.2538 589.823 45.8473C590.131 46.4408 590.285 47.1158 590.285 47.8722C590.285 48.6287 590.131 49.2995 589.823 49.8846C589.514 50.4697 589.041 50.9294 588.404 51.2638C587.766 51.594 586.952 51.7591 585.96 51.7591H582.46V50.3548H585.91C586.593 50.3548 587.143 50.2545 587.56 50.0539C587.981 49.8533 588.285 49.5691 588.472 49.2013C588.664 48.8293 588.76 48.3863 588.76 47.8722C588.76 47.3582 588.664 46.9089 588.472 46.5244C588.281 46.1399 587.974 45.8431 587.554 45.6342C587.133 45.421 586.576 45.3145 585.885 45.3145H583.16V56.7743H581.61ZM587.635 51.0068L590.785 56.7743H588.985L585.885 51.0068H587.635Z" fill="url(#paint38_linear_2612_707)"/>
<path d="M597.793 56.7743H596.168L600.869 43.9353H602.469L607.169 56.7743H605.544L601.719 45.9664H601.619L597.793 56.7743ZM598.393 51.7591H604.944V53.1383H598.393V51.7591Z" fill="url(#paint39_linear_2612_707)"/>
<path d="M623.262 47.9475H621.712C621.62 47.5003 621.46 47.1074 621.231 46.7689C621.006 46.4303 620.731 46.1461 620.406 45.9163C620.085 45.6822 619.729 45.5067 619.337 45.3897C618.945 45.2727 618.537 45.2141 618.112 45.2141C617.337 45.2141 616.635 45.4106 616.005 45.8034C615.38 46.1963 614.882 46.7751 614.512 47.54C614.145 48.3048 613.962 49.2431 613.962 50.3548C613.962 51.4665 614.145 52.4048 614.512 53.1696C614.882 53.9344 615.38 54.5133 616.005 54.9061C616.635 55.299 617.337 55.4954 618.112 55.4954C618.537 55.4954 618.945 55.4369 619.337 55.3199C619.729 55.2029 620.085 55.0294 620.406 54.7996C620.731 54.5655 621.006 54.2792 621.231 53.9407C621.46 53.598 621.62 53.2051 621.712 52.7621H623.262C623.146 53.4183 622.933 54.0055 622.625 54.5237C622.316 55.042 621.933 55.4829 621.475 55.8465C621.016 56.2059 620.502 56.4797 619.931 56.6677C619.364 56.8558 618.758 56.9498 618.112 56.9498C617.02 56.9498 616.049 56.6824 615.199 56.1474C614.349 55.6124 613.68 54.8518 613.193 53.8655C612.705 52.8791 612.461 51.7089 612.461 50.3548C612.461 49.0007 612.705 47.8304 613.193 46.8441C613.68 45.8578 614.349 45.0971 615.199 44.5622C616.049 44.0272 617.02 43.7597 618.112 43.7597C618.758 43.7597 619.364 43.8538 619.931 44.0418C620.502 44.2299 621.016 44.5057 621.475 44.8693C621.933 45.2288 622.316 45.6676 622.625 46.1859C622.933 46.6999 623.146 47.2871 623.262 47.9475Z" fill="url(#paint40_linear_2612_707)"/>
<path d="M630.167 56.7743V43.9353H631.717V55.3951H637.668V56.7743H630.167Z" fill="url(#paint41_linear_2612_707)"/>
<path d="M644.468 56.7743V43.9353H652.194V45.3145H646.018V49.6526H651.794V51.0318H646.018V55.3951H652.294V56.7743H644.468Z" fill="url(#paint42_linear_2612_707)"/>
<path d="M659.388 56.7743V43.9353H663.713C664.717 43.9353 665.538 44.1171 666.176 44.4807C666.818 44.8401 667.293 45.327 667.601 45.9414C667.909 46.5557 668.063 47.2411 668.063 47.9976C668.063 48.7541 667.909 49.4416 667.601 50.0601C667.297 50.6787 666.826 51.1719 666.188 51.5396C665.551 51.9032 664.734 52.085 663.738 52.085H660.638V50.7058H663.688C664.376 50.7058 664.928 50.5867 665.345 50.3485C665.761 50.1103 666.063 49.7885 666.251 49.3831C666.443 48.9735 666.538 48.5117 666.538 47.9976C666.538 47.4836 666.443 47.0238 666.251 46.6184C666.063 46.213 665.759 45.8954 665.338 45.6655C664.917 45.4315 664.359 45.3145 663.663 45.3145H660.938V56.7743H659.388Z" fill="url(#paint43_linear_2612_707)"/>
<path d="M674.961 56.7743V43.9353H676.511V55.3951H682.461V56.7743H674.961Z" fill="url(#paint44_linear_2612_707)"/>
<path d="M697.662 43.9353H699.212V52.4361C699.212 53.3138 699.006 54.0974 698.594 54.787C698.185 55.4724 697.608 56.0137 696.862 56.4107C696.116 56.8036 695.241 57 694.237 57C693.233 57 692.358 56.8036 691.612 56.4107C690.866 56.0137 690.287 55.4724 689.874 54.787C689.466 54.0974 689.262 53.3138 689.262 52.4361V43.9353H690.812V52.3107C690.812 52.9376 690.949 53.4956 691.224 53.9846C691.499 54.4694 691.891 54.8518 692.399 55.1318C692.912 55.4077 693.524 55.5456 694.237 55.5456C694.95 55.5456 695.562 55.4077 696.075 55.1318C696.587 54.8518 696.979 54.4694 697.25 53.9846C697.525 53.4956 697.662 52.9376 697.662 52.3107V43.9353Z" fill="url(#paint45_linear_2612_707)"/>
<path d="M713.709 47.145C713.634 46.5098 713.329 46.0166 712.796 45.6655C712.263 45.3145 711.608 45.1389 710.833 45.1389C710.267 45.1389 709.771 45.2309 709.346 45.4148C708.925 45.5986 708.596 45.8515 708.358 46.1733C708.125 46.4951 708.008 46.8608 708.008 47.2704C708.008 47.6131 708.089 47.9078 708.252 48.1543C708.419 48.3967 708.631 48.5994 708.89 48.7624C709.148 48.9213 709.419 49.0529 709.702 49.1574C709.985 49.2577 710.246 49.3392 710.483 49.4019L711.783 49.753C712.117 49.8407 712.488 49.9619 712.896 50.1166C713.309 50.2712 713.702 50.4823 714.077 50.7497C714.457 51.013 714.769 51.3516 715.015 51.7653C715.261 52.1791 715.384 52.6869 715.384 53.2887C715.384 53.9825 715.202 54.6094 714.84 55.1694C714.482 55.7295 713.957 56.1746 713.265 56.5047C712.577 56.8349 711.742 57 710.758 57C709.842 57 709.048 56.8516 708.377 56.5549C707.71 56.2582 707.185 55.8444 706.802 55.3136C706.423 54.7828 706.208 54.1664 706.158 53.4642H707.758C707.8 53.9491 707.962 54.3503 708.246 54.6679C708.533 54.9814 708.896 55.2154 709.333 55.37C709.775 55.5205 710.25 55.5957 710.758 55.5957C711.35 55.5957 711.881 55.4996 712.352 55.3074C712.823 55.1109 713.196 54.8393 713.471 54.4924C713.746 54.1413 713.884 53.7317 713.884 53.2636C713.884 52.8373 713.765 52.4904 713.527 52.223C713.29 51.9555 712.977 51.7382 712.59 51.571C712.202 51.4038 711.783 51.2575 711.333 51.1321L709.758 50.6808C708.758 50.3924 707.967 49.9807 707.383 49.4458C706.8 48.9108 706.508 48.2108 706.508 47.3456C706.508 46.6268 706.702 45.9999 707.089 45.4649C707.481 44.9258 708.006 44.5078 708.665 44.2111C709.327 43.9102 710.067 43.7597 710.883 43.7597C711.708 43.7597 712.442 43.9081 713.084 44.2048C713.725 44.4974 714.234 44.8986 714.609 45.4085C714.988 45.9184 715.188 46.4972 715.209 47.145H713.709Z" fill="url(#paint46_linear_2612_707)"/>
<path d="M908.749 34.3901C908.417 26.4291 914.967 18.634 918.285 14.9023C914.138 16.5609 910.406 18.634 905.431 25.2682C903.32 28.0828 900.039 35.2194 899.624 38.9511C899.21 42.6828 899.211 52.634 914.553 53.4632C926.826 54.1266 935.147 45.5852 937.773 41.0242C938.326 38.9511 938.933 34.8047 935.285 34.8047C932.382 34.8047 932.824 38.9511 932.382 39.7803C929.065 45.9998 922.431 47.2437 918.285 46.8291C914.14 46.4145 909.163 44.3413 908.749 34.3901Z" fill="url(#paint47_linear_2612_707)"/>
<path fill-rule="evenodd" clip-rule="evenodd" d="M836.635 9.09766C844.098 9.09766 854.213 12.8386 853.629 25.6875C853.214 34.8094 849.486 45.1798 842.022 49.3262C834.559 53.4725 815.068 55.8043 808.025 46.8389C806.507 44.9055 804.623 39.9557 805.95 30.668C807.277 21.3802 812.588 15.7413 815.074 14.083C821.471 9.10662 829.171 9.09766 836.635 9.09766ZM832.074 15.7314C826.684 15.7314 823.92 18.4957 822.538 19.8779C818.392 23.6096 815.074 38.1215 817.561 41.8535C819.552 44.8389 822.952 46.415 825.025 46.415C828.342 46.415 831.969 46.5206 836.221 42.2686C840.473 38.0162 845.342 21.1223 839.537 17.3906C838.792 16.9121 836.386 15.7315 832.074 15.7314Z" fill="url(#paint48_linear_2612_707)"/>
<path d="M879.306 9.51172H900.037C899.761 10.341 899.623 10.7556 898.379 12.8288C897.135 14.902 896.167 15.7312 895.062 16.5605H876.403C874.33 16.5605 873.086 17.3898 871.428 18.6336C869.769 19.8775 869.493 21.8125 869.354 22.78L868.525 29.8287H891.745C891.745 31.0726 891.526 31.8512 890.501 33.5604C889.257 35.6336 888.013 36.8775 886.769 36.8775H866.867L865.623 45.1702C865.623 45.9994 864.959 48.9848 862.306 50.975C859.652 52.9653 855.119 53.1864 853.184 53.0482L857.745 27.3409C858.159 24.0239 860.979 17.2239 863.964 14.902C866.63 12.8288 873.501 9.51172 879.306 9.51172Z" fill="url(#paint49_linear_2612_707)"/>
<path d="M899.622 20.2927C897.632 20.2927 896.581 18.6342 896.305 17.8049C895.199 19.0488 893.402 21.2049 893.402 23.1951C893.402 25.6829 894.646 29.1728 897.548 29.4146C900.451 29.6565 901.695 26.9268 905.841 21.9512C909.988 16.9756 915.793 13.6586 922.427 13.2439C929.061 12.8293 934.037 15.7317 935.695 16.9756C937.354 18.2195 937.768 18.7526 939.841 19.0487C942.744 19.4634 944.817 14.0732 943.988 14.4878C943.159 14.9025 939.841 13.2439 939.012 12.8293C938.183 12.4147 939.012 11.1708 938.598 9.92688C938.183 8.68298 935.28 9.09761 934.451 8.26834C933.622 7.43908 935.28 5.78042 934.451 4.53652C933.622 3.29262 926.158 2.87811 919.939 4.95128C914.963 6.60981 907.638 13.6586 904.597 16.9756C903.768 18.0813 901.612 20.2927 899.622 20.2927Z" fill="url(#paint50_linear_2612_707)"/>
<defs>
<linearGradient id="paint0_linear_2612_707" x1="41.25" y1="6.75" x2="41.25" y2="50.25" gradientUnits="userSpaceOnUse">
<stop stop-color="#4C4C4C"/>
<stop offset="1" stop-color="#A6A6A6"/>
</linearGradient>
<linearGradient id="paint1_linear_2612_707" x1="41.25" y1="6.75" x2="41.25" y2="50.25" gradientUnits="userSpaceOnUse">
<stop stop-color="#4C4C4C"/>
<stop offset="1" stop-color="#A6A6A6"/>
</linearGradient>
<linearGradient id="paint2_linear_2612_707" x1="41.25" y1="6.75" x2="41.25" y2="50.25" gradientUnits="userSpaceOnUse">
<stop stop-color="#4C4C4C"/>
<stop offset="1" stop-color="#A6A6A6"/>
</linearGradient>
<linearGradient id="paint3_linear_2612_707" x1="41.25" y1="6.75" x2="41.25" y2="50.25" gradientUnits="userSpaceOnUse">
<stop stop-color="#4C4C4C"/>
<stop offset="1" stop-color="#A6A6A6"/>
</linearGradient>
<linearGradient id="paint4_linear_2612_707" x1="41.25" y1="6.75" x2="41.25" y2="50.25" gradientUnits="userSpaceOnUse">
<stop stop-color="#4C4C4C"/>
<stop offset="1" stop-color="#A6A6A6"/>
</linearGradient>
<linearGradient id="paint5_linear_2612_707" x1="41.25" y1="6.75" x2="41.25" y2="50.25" gradientUnits="userSpaceOnUse">
<stop stop-color="#4C4C4C"/>
<stop offset="1" stop-color="#A6A6A6"/>
</linearGradient>
<linearGradient id="paint6_linear_2612_707" x1="41.25" y1="6.75" x2="41.25" y2="50.25" gradientUnits="userSpaceOnUse">
<stop stop-color="#4C4C4C"/>
<stop offset="1" stop-color="#A6A6A6"/>
</linearGradient>
<linearGradient id="paint7_linear_2612_707" x1="271" y1="0" x2="271" y2="57" gradientUnits="userSpaceOnUse">
<stop stop-color="#4C4C4C"/>
<stop offset="1" stop-color="#A6A6A6" stop-opacity="0.666667"/>
</linearGradient>
<linearGradient id="paint8_linear_2612_707" x1="271" y1="0" x2="271" y2="57" gradientUnits="userSpaceOnUse">
<stop stop-color="#4C4C4C"/>
<stop offset="1" stop-color="#A6A6A6" stop-opacity="0.666667"/>
</linearGradient>
<linearGradient id="paint9_linear_2612_707" x1="271" y1="0" x2="271" y2="57" gradientUnits="userSpaceOnUse">
<stop stop-color="#4C4C4C"/>
<stop offset="1" stop-color="#A6A6A6" stop-opacity="0.666667"/>
</linearGradient>
<linearGradient id="paint10_linear_2612_707" x1="271" y1="0" x2="271" y2="57" gradientUnits="userSpaceOnUse">
<stop stop-color="#4C4C4C"/>
<stop offset="1" stop-color="#A6A6A6" stop-opacity="0.666667"/>
</linearGradient>
<linearGradient id="paint11_linear_2612_707" x1="271" y1="0" x2="271" y2="57" gradientUnits="userSpaceOnUse">
<stop stop-color="#4C4C4C"/>
<stop offset="1" stop-color="#A6A6A6" stop-opacity="0.666667"/>
</linearGradient>
<linearGradient id="paint12_linear_2612_707" x1="271" y1="0" x2="271" y2="57" gradientUnits="userSpaceOnUse">
<stop stop-color="#4C4C4C"/>
<stop offset="1" stop-color="#A6A6A6" stop-opacity="0.666667"/>
</linearGradient>
<linearGradient id="paint13_linear_2612_707" x1="271" y1="0" x2="271" y2="57" gradientUnits="userSpaceOnUse">
<stop stop-color="#4C4C4C"/>
<stop offset="1" stop-color="#A6A6A6" stop-opacity="0.666667"/>
</linearGradient>
<linearGradient id="paint14_linear_2612_707" x1="271" y1="0" x2="271" y2="57" gradientUnits="userSpaceOnUse">
<stop stop-color="#4C4C4C"/>
<stop offset="1" stop-color="#A6A6A6" stop-opacity="0.666667"/>
</linearGradient>
<linearGradient id="paint15_linear_2612_707" x1="271" y1="0" x2="271" y2="57" gradientUnits="userSpaceOnUse">
<stop stop-color="#4C4C4C"/>
<stop offset="1" stop-color="#A6A6A6" stop-opacity="0.666667"/>
</linearGradient>
<linearGradient id="paint16_linear_2612_707" x1="271" y1="0" x2="271" y2="57" gradientUnits="userSpaceOnUse">
<stop stop-color="#4C4C4C"/>
<stop offset="1" stop-color="#A6A6A6" stop-opacity="0.666667"/>
</linearGradient>
<linearGradient id="paint17_linear_2612_707" x1="271" y1="0" x2="271" y2="57" gradientUnits="userSpaceOnUse">
<stop stop-color="#4C4C4C"/>
<stop offset="1" stop-color="#A6A6A6" stop-opacity="0.666667"/>
</linearGradient>
<linearGradient id="paint18_linear_2612_707" x1="271" y1="0" x2="271" y2="57" gradientUnits="userSpaceOnUse">
<stop stop-color="#4C4C4C"/>
<stop offset="1" stop-color="#A6A6A6" stop-opacity="0.666667"/>
</linearGradient>
<linearGradient id="paint19_linear_2612_707" x1="271" y1="0" x2="271" y2="57" gradientUnits="userSpaceOnUse">
<stop stop-color="#4C4C4C"/>
<stop offset="1" stop-color="#A6A6A6" stop-opacity="0.666667"/>
</linearGradient>
<linearGradient id="paint20_linear_2612_707" x1="271" y1="0" x2="271" y2="57" gradientUnits="userSpaceOnUse">
<stop stop-color="#4C4C4C"/>
<stop offset="1" stop-color="#A6A6A6" stop-opacity="0.666667"/>
</linearGradient>
<linearGradient id="paint21_linear_2612_707" x1="271" y1="0" x2="271" y2="57" gradientUnits="userSpaceOnUse">
<stop stop-color="#4C4C4C"/>
<stop offset="1" stop-color="#A6A6A6" stop-opacity="0.666667"/>
</linearGradient>
<linearGradient id="paint22_linear_2612_707" x1="271" y1="0" x2="271" y2="57" gradientUnits="userSpaceOnUse">
<stop stop-color="#4C4C4C"/>
<stop offset="1" stop-color="#A6A6A6" stop-opacity="0.666667"/>
</linearGradient>
<linearGradient id="paint23_linear_2612_707" x1="462.5" y1="0" x2="462.5" y2="57" gradientUnits="userSpaceOnUse">
<stop stop-color="#4C4C4C"/>
<stop offset="1" stop-color="#A6A6A6"/>
</linearGradient>
<linearGradient id="paint24_linear_2612_707" x1="472.5" y1="8" x2="472.5" y2="57" gradientUnits="userSpaceOnUse">
<stop stop-color="#4C4C4C"/>
<stop offset="1" stop-color="#A6A6A6"/>
</linearGradient>
<linearGradient id="paint25_linear_2612_707" x1="482.5" y1="18" x2="482.5" y2="57" gradientUnits="userSpaceOnUse">
<stop stop-color="#4C4C4C"/>
<stop offset="1" stop-color="#A6A6A6"/>
</linearGradient>
<linearGradient id="paint26_linear_2612_707" x1="492.5" y1="26" x2="492.5" y2="57" gradientUnits="userSpaceOnUse">
<stop stop-color="#4C4C4C"/>
<stop offset="1" stop-color="#A6A6A6"/>
</linearGradient>
<linearGradient id="paint27_linear_2612_707" x1="502.5" y1="36" x2="502.5" y2="57" gradientUnits="userSpaceOnUse">
<stop stop-color="#4C4C4C"/>
<stop offset="1" stop-color="#A6A6A6"/>
</linearGradient>
<linearGradient id="paint28_linear_2612_707" x1="512.5" y1="26" x2="512.5" y2="57" gradientUnits="userSpaceOnUse">
<stop stop-color="#4C4C4C"/>
<stop offset="1" stop-color="#A6A6A6"/>
</linearGradient>
<linearGradient id="paint29_linear_2612_707" x1="522.5" y1="18" x2="522.5" y2="57" gradientUnits="userSpaceOnUse">
<stop stop-color="#4C4C4C"/>
<stop offset="1" stop-color="#A6A6A6"/>
</linearGradient>
<linearGradient id="paint30_linear_2612_707" x1="532.5" y1="8" x2="532.5" y2="57" gradientUnits="userSpaceOnUse">
<stop stop-color="#4C4C4C"/>
<stop offset="1" stop-color="#A6A6A6"/>
</linearGradient>
<linearGradient id="paint31_linear_2612_707" x1="542.5" y1="0" x2="542.5" y2="57" gradientUnits="userSpaceOnUse">
<stop stop-color="#4C4C4C"/>
<stop offset="1" stop-color="#A6A6A6"/>
</linearGradient>
<linearGradient id="paint32_linear_2612_707" x1="634.414" y1="-5.2063e-08" x2="633.665" y2="63.8361" gradientUnits="userSpaceOnUse">
<stop stop-color="#4C4C4C"/>
<stop offset="1" stop-color="#A6A6A6" stop-opacity="0.5"/>
</linearGradient>
<linearGradient id="paint33_linear_2612_707" x1="634.414" y1="-5.2063e-08" x2="633.665" y2="63.8361" gradientUnits="userSpaceOnUse">
<stop stop-color="#4C4C4C"/>
<stop offset="1" stop-color="#A6A6A6" stop-opacity="0.5"/>
</linearGradient>
<linearGradient id="paint34_linear_2612_707" x1="634.414" y1="-5.2063e-08" x2="633.665" y2="63.8361" gradientUnits="userSpaceOnUse">
<stop stop-color="#4C4C4C"/>
<stop offset="1" stop-color="#A6A6A6" stop-opacity="0.5"/>
</linearGradient>
<linearGradient id="paint35_linear_2612_707" x1="634.414" y1="-5.2063e-08" x2="633.665" y2="63.8361" gradientUnits="userSpaceOnUse">
<stop stop-color="#4C4C4C"/>
<stop offset="1" stop-color="#A6A6A6" stop-opacity="0.5"/>
</linearGradient>
<linearGradient id="paint36_linear_2612_707" x1="634.414" y1="-5.2063e-08" x2="633.665" y2="63.8361" gradientUnits="userSpaceOnUse">
<stop stop-color="#4C4C4C"/>
<stop offset="1" stop-color="#A6A6A6" stop-opacity="0.5"/>
</linearGradient>
<linearGradient id="paint37_linear_2612_707" x1="634.414" y1="-5.2063e-08" x2="633.665" y2="63.8361" gradientUnits="userSpaceOnUse">
<stop stop-color="#4C4C4C"/>
<stop offset="1" stop-color="#A6A6A6" stop-opacity="0.5"/>
</linearGradient>
<linearGradient id="paint38_linear_2612_707" x1="634.414" y1="-5.2063e-08" x2="633.665" y2="63.8361" gradientUnits="userSpaceOnUse">
<stop stop-color="#4C4C4C"/>
<stop offset="1" stop-color="#A6A6A6" stop-opacity="0.5"/>
</linearGradient>
<linearGradient id="paint39_linear_2612_707" x1="634.414" y1="-5.2063e-08" x2="633.665" y2="63.8361" gradientUnits="userSpaceOnUse">
<stop stop-color="#4C4C4C"/>
<stop offset="1" stop-color="#A6A6A6" stop-opacity="0.5"/>
</linearGradient>
<linearGradient id="paint40_linear_2612_707" x1="634.414" y1="-5.2063e-08" x2="633.665" y2="63.8361" gradientUnits="userSpaceOnUse">
<stop stop-color="#4C4C4C"/>
<stop offset="1" stop-color="#A6A6A6" stop-opacity="0.5"/>
</linearGradient>
<linearGradient id="paint41_linear_2612_707" x1="634.414" y1="-5.2063e-08" x2="633.665" y2="63.8361" gradientUnits="userSpaceOnUse">
<stop stop-color="#4C4C4C"/>
<stop offset="1" stop-color="#A6A6A6" stop-opacity="0.5"/>
</linearGradient>
<linearGradient id="paint42_linear_2612_707" x1="634.414" y1="-5.2063e-08" x2="633.665" y2="63.8361" gradientUnits="userSpaceOnUse">
<stop stop-color="#4C4C4C"/>
<stop offset="1" stop-color="#A6A6A6" stop-opacity="0.5"/>
</linearGradient>
<linearGradient id="paint43_linear_2612_707" x1="634.414" y1="-5.2063e-08" x2="633.665" y2="63.8361" gradientUnits="userSpaceOnUse">
<stop stop-color="#4C4C4C"/>
<stop offset="1" stop-color="#A6A6A6" stop-opacity="0.5"/>
</linearGradient>
<linearGradient id="paint44_linear_2612_707" x1="634.414" y1="-5.2063e-08" x2="633.665" y2="63.8361" gradientUnits="userSpaceOnUse">
<stop stop-color="#4C4C4C"/>
<stop offset="1" stop-color="#A6A6A6" stop-opacity="0.5"/>
</linearGradient>
<linearGradient id="paint45_linear_2612_707" x1="634.414" y1="-5.2063e-08" x2="633.665" y2="63.8361" gradientUnits="userSpaceOnUse">
<stop stop-color="#4C4C4C"/>
<stop offset="1" stop-color="#A6A6A6" stop-opacity="0.5"/>
</linearGradient>
<linearGradient id="paint46_linear_2612_707" x1="634.414" y1="-5.2063e-08" x2="633.665" y2="63.8361" gradientUnits="userSpaceOnUse">
<stop stop-color="#4C4C4C"/>
<stop offset="1" stop-color="#A6A6A6" stop-opacity="0.5"/>
</linearGradient>
<linearGradient id="paint47_linear_2612_707" x1="918.853" y1="14.9023" x2="918.853" y2="53.4997" gradientUnits="userSpaceOnUse">
<stop stop-color="#4E4E4E"/>
<stop offset="1" stop-color="#BCBCBC"/>
</linearGradient>
<linearGradient id="paint48_linear_2612_707" x1="829.576" y1="9.09766" x2="829.576" y2="52.9996" gradientUnits="userSpaceOnUse">
<stop stop-color="#4E4E4E"/>
<stop offset="1" stop-color="#BCBCBC"/>
</linearGradient>
<linearGradient id="paint49_linear_2612_707" x1="876.61" y1="9.51172" x2="876.61" y2="53.0814" gradientUnits="userSpaceOnUse">
<stop stop-color="#4E4E4E"/>
<stop offset="1" stop-color="#BCBCBC"/>
</linearGradient>
<linearGradient id="paint50_linear_2612_707" x1="918.787" y1="3.5" x2="918.787" y2="29.4295" gradientUnits="userSpaceOnUse">
<stop stop-color="#4E4E4E"/>
<stop offset="1" stop-color="#BCBCBC"/>
</linearGradient>
</defs>
</svg>
